# xmcd
#
# Track frame offsets:
#	150
#	16542
#	35027
#	55740
#	70487
#	86115
#	99495
#	116535
#	137510
#	151550
#	167772
#	184165
#	202647
#	223362
#	238107
#	253737
#	267115
#	284157
#	305130
#	319172
#
# Disc length: 4471 seconds
#
# Revision: 0
# Processed by: cddbd v1.5.1PL2 Copyright (c) Steve Scherf et al.
# Submitted via: audiograbber 1.83.01
#
DISCID=22117514
DTITLE=Top Hits Monthly Country - Thmc0405
DYEAR=2004
DGENRE=Karaoke
TTITLE0=Kenny Chesney And Uncle Krack (Vocal) - When The Sun Goes Down
TTITLE1=George Strait (Vocal) - Desperately
TTITLE2=John Michael Montgomery (Vocal) - Letters From Home
TTITLE3=David Lee Murphy (Vocal) - Loco
TTITLE4=Shedaisy (Vocal) - Passenger Seat
TTITLE5=Brooks And Dunn (Vocal) - That's What She Gets For Loving Me
TTITLE6=Diamond Rio (Vocal) - We All Fall Down
TTITLE7=Wynonna And Naomi Judd (Vocal) - Flies On The Butter (You Can't Go H
TTITLE8=Amy Dalley (Vocal) - Men Don't Change
TTITLE9=Emerson Drive (Vocal) - Last One Standing
TTITLE10=Kenny Chesney And Uncle Krack - When The Sun Goes Down
TTITLE11=George Strait - Desperately
TTITLE12=John Michael Montgomery - Letters From Home
TTITLE13=David Lee Murphy - Loco
TTITLE14=Shedaisy - Passenger Seat
TTITLE15=Brooks And Dunn - That's What She Gets For Loving Me
TTITLE16=Diamond Rio - We All Fall Down
TTITLE17=Wynonna And Naomi Judd - Flies On The Butter (You Can't Go H
TTITLE18=Amy Dalley - Men Don't Change
TTITLE19=Emerson Drive - Last One Standing
EXTD=
EXTT0=
EXTT1=
EXTT2=
EXTT3=
EXTT4=
EXTT5=
EXTT6=
EXTT7=
EXTT8=
EXTT9=
EXTT10=
EXTT11=
EXTT12=
EXTT13=
EXTT14=
EXTT15=
EXTT16=
EXTT17=
EXTT18=
EXTT19=
PLAYORDER=
